PathFileType	4	(X/Y/Z)	RBDS03\RBDS03runT45.trc
DataRate	CameraRate	NumFrames	NumMarkers	Units	OrigDataRate	OrigDataStartFrame	OrigNumFrames
150.000000	150.000000	4	33	mm	150.000000	3937	4500
Frame#	Time	L.ASIS			L.Heel.Bottom			L.Heel.Lateral			L.Heel.Top			L.Iliac.Crest			L.MT1			L.MT5			L.PSIS			L.Shank.Bottom.Lateral			L.Shank.Bottom.Medial			L.Shank.Top.Lateral			L.Shank.Top.Medial			L.Thigh.Bottom.Lateral			L.Thigh.Bottom.Medial			L.Thigh.Top.Lateral			L.Thigh.Top.Medial			R.ASIS			R.ASY			R.Heel.Bottom			R.Heel.Lateral			R.Heel.Top			R.Iliac.Crest			R.MT1			R.MT5			R.PSIS			R.Shank.Bottom.Lateral			R.Shank.Bottom.Medial			R.Shank.Top.Lateral			R.Shank.Top.Medial			R.Thigh.Bottom.Lateral			R.Thigh.Bottom.Medial			R.Thigh.Top.Lateral			R.Thigh.Top.Medial			
		X1	Y1	Z1	X2	Y2	Z2	X3	Y3	Z3	X4	Y4	Z4	X5	Y5	Z5	X6	Y6	Z6	X7	Y7	Z7	X8	Y8	Z8	X9	Y9	Z9	X10	Y10	Z10	X11	Y11	Z11	X12	Y12	Z12	X13	Y13	Z13	X14	Y14	Z14	X15	Y15	Z15	X16	Y16	Z16	X17	Y17	Z17	X18	Y18	Z18	X19	Y19	Z19	X20	Y20	Z20	X21	Y21	Z21	X22	Y22	Z22	X23	Y23	Z23	X24	Y24	Z24	X25	Y25	Z25	X26	Y26	Z26	X27	Y27	Z27	X28	Y28	Z28	X29	Y29	Z29	X30	Y30	Z30	X31	Y31	Z31	X32	Y32	Z32	X33	Y33	Z33	

3938	26.24666666666667	2447.199304226955	1074.31537226001	945.7959814938325	2377.363121787469	199.0187345772314	1025.620025281906	2406.624212650206	207.0572201167182	975.6898958777354	2403.568970631712	242.7234696164346	1028.235204644938	2367.446451953227	1148.715251252862	902.5131265464523	2600.91852387574	142.8661195401573	1027.974548841819	2550.068235095368	155.4268017611917	928.7404523590176	2283.191043806168	1099.004138014052	1009.212163888907	2489.449273995756	314.9002326354955	962.1844385012139	2454.180772507247	330.0683276414476	1001.326153505129	2507.759691013089	391.7273059945256	948.1608180208887	2473.533715550078	407.7553676190595	986.4833639902071	2604.519117757492	714.265223849725	928.6510078879056	2545.05496572498	677.816349882738	952.4917720966575	2540.016071700594	798.964895728596	900.0228567202049	2482.926423285012	764.1803377689915	920.2554006128202	2461.349867168093	1046.692326939351	1149.621755148858	-1726566367.793462	365615533.8804938	-1017270560.358189	1773.156470469561	283.9926741340377	1083.528406714539	1799.10166226458	259.7239277292947	1135.336743114762	1819.733910473798	296.9963344224175	1093.346643927274	2439.269369762536	1130.614497169908	1187.618233837731	1883.411217163446	100.3752451508777	1059.736989337824	1846.663343844622	111.6970064856484	1168.671601174867	2292.533165009581	1097.244717088792	1091.279040467019	1885.123678889283	309.9007495466261	1155.220505542432	1866.739476212769	328.0377272917647	1110.598070446215	1923.198882188906	385.1227480317452	1167.745997953746	1900.704990143842	400.2194831272722	1121.583897955579	2184.515266205842	689.537533103208	1189.967718211807	2129.42663898617	716.6253156242631	1149.991919016437	2222.902672609418	792.74281517101	1203.197932318196	2173.246332810108	816.7606575982154	1162.282639199742	
3939	26.25333333333333	2448.240939344884	1077.212115377373	945.4466823083955	2408.226653426355	179.4423433649777	1026.569005320165	2436.650122460066	189.5028769251948	976.4504419080439	2430.95202567149	225.0771702261552	1028.895430374318	2367.999178188655	1152.253064760021	902.8444364834594	2635.256093433441	141.1812239799017	1028.45776649435	2583.570827925248	149.0188484819384	929.4290187660441	2285.430007023615	1102.805856022936	1009.875812298459	2510.822083573757	303.5979350118077	962.3024903092888	2474.755076192429	316.3841111678526	1001.463155790837	2523.54753433057	381.3329524550311	947.6992353124236	2488.411815338614	395.0369959622971	986.065821825406	2601.550764916208	712.5457102825471	928.0344901401249	2541.602449803439	676.5387460456392	951.4915947300512	2538.084544337712	798.2504131663325	900.0956690473957	2480.62368550414	764.0880384446331	920.3185803827539	2464.295884315838	1050.234060666411	1148.94772362984	-1727885658.814744	365898205.8300189	-1018046884.08051	1761.890014147657	302.9991595015342	1082.378773931188	1786.18008639959	278.4544885236066	1134.791472300806	1808.972001547297	314.2196384189961	1092.634405489209	2443.870801650201	1134.895201494013	1186.489319118986	1865.434226057767	113.6628411871447	1063.104763492982	1827.402521352847	128.1931109409814	1170.577061975266	2295.362461510801	1101.859613632039	1091.79955601915	1873.210539462782	324.7428704884677	1155.661987021491	1855.568173698278	342.910936461449	1110.751195636068	1912.661801221243	399.2530503321343	1167.979640114715	1890.893088150629	414.4791412989485	1121.53611866818	2181.067065860543	697.8052822016779	1190.232887876878	2126.506657583355	726.0357457574495	1150.112780121276	2221.640162726136	800.211047864328	1203.513347587614	2172.538255938978	825.2250331398428	1162.487719494102	
3940	26.26	2449.108311267498	1079.327132036955	945.086441711028	2439.30513864582	161.3779456920496	1027.409905625501	2466.823302483566	173.2736988977231	977.0881320379178	2458.406974682637	208.6293598783727	1029.339214435638	2368.490711610476	1154.782184640139	903.0227218240095	2668.280312649073	141.1541171538948	1029.067466809906	2616.336581174125	144.022895491359	930.1921690134419	2287.430113155705	1106.037862359207	1010.400090959964	2531.860706238809	292.9167706196177	962.2291329925073	2495.04662070092	303.2961840214759	1001.274079887299	2538.966223378537	371.1252105682598	946.9935296289045	2502.952291395835	382.4589849676493	985.2596494852377	2597.472646853255	709.5018755425298	927.1982538969748	2537.150173178542	674.3324433318421	950.8845183598105	2535.202971542247	796.2236497801806	899.7988682311576	2477.427051985854	763.0307565872388	920.5523695612405	2466.838630865566	1053.608919058337	1148.514844614448	-1729205621.711016	366181023.4139451	-1018823602.665285	1750.165020052665	321.9521099781651	1080.070579301866	1772.811244749056	297.6134437692329	1133.212466574269	1797.543829454991	331.6430625434541	1090.769985539946	2447.137755773778	1138.898417393751	1185.599114248089	1847.4552551481	128.0490546694572	1066.183476617843	1808.2139898511	146.1594993138826	1172.154754846771	2297.841876727854	1106.059975555937	1092.229324745493	1861.160906674521	340.1181637896389	1155.281174026868	1844.473485392387	358.549877483473	1110.154504035197	1902.541854312431	413.4783161442265	1167.668587819703	1881.701292839773	429.1293756617209	1120.996073790356	2179.273219981173	704.5975649010818	1190.865373355711	2125.022043488917	733.6399182085927	1150.743987051888	2221.42705752092	806.3817876023485	1204.192318091991	2172.605723140111	832.1183617116349	1163.275581367044	
3941	26.26666666666667	2449.827846647172	1080.734034323274	944.7289493821006	2470.216861453798	144.982070546888	1028.081977773738	2496.793084665429	158.5316695110392	977.5584534046676	2485.580769566175	193.5311268941111	1029.506585343672	2368.951473759961	1156.341778220531	903.0577503175883	2699.64683014244	142.7941273623926	1029.811297664018	2648.040333465039	140.533540339887	931.0267086858822	2289.194968983085	1108.697044434779	1010.805917178659	2552.302924015903	283.0339189520369	961.9566335086369	2514.794377501461	290.9569644916918	1000.768942990958	2553.792706825642	361.3047361635164	946.0761634175108	2516.944553184928	370.1987234221664	984.1185986856095	2592.278489055256	705.288674544251	926.2076559445136	2531.707018996372	671.3556099272751	950.7263247519384	2531.357856605837	793.0234547510303	899.1620245936074	2473.338715513913	761.1393629287319	920.9607599836515	2469.022216986288	1056.804208353697	1148.297772989904	-1730526256.653317	366463986.6697721	-1019600716.212908	1738.212001649968	341.0314431179239	1076.788751889741	1759.22970082666	317.222301727237	1130.745497306132	1785.736666069693	349.3398843035995	1087.946134786995	2449.087061341887	1142.63846837694	1184.972003187855	1829.35806354063	143.4226235276667	1068.817175916962	1789.088404215322	165.3816768618924	1173.323805985943	2299.987371309502	1109.809673182054	1092.594618900469	1849.13055087521	355.9499127905142	1154.19304604517	1833.609335076987	374.8249097457791	1108.899318329497	1892.922569990806	427.7303918744828	1166.889875815857	1873.214358197519	444.0407469235603	1120.023021052405	2179.079317147553	709.8024712480159	1191.849584451227	2124.9151484427	739.3398967605119	1151.863447790732	2222.220262615376	811.1680649544684	1205.21267619869	2173.403722728144	837.3652796064885	1164.607440651352	
